<svg width="65" height="85" xmlns="http://www.w3.org/2000/svg">
 <g>
  <title>Layer 1</title>
  <path filter="url(#svg_10_blur)" stroke="#007fff" id="svg_10" d="m53.21797,11.35711c-5.64212,-5.07018 -11.72746,-9.13171 -16.71931,-9.68542c-0.27175,-0.03592 -0.55321,-0.05687 -0.85085,-0.06285l-32.85306,0c-0.5241,0 -1.04172,0.18856 -1.41053,0.53874c-0.36557,0.3412 -0.58233,0.82009 -0.58233,1.30795l0,77.07029c0,0.48487 0.20382,0.94879 0.58233,1.30196c0.37851,0.34719 0.87673,0.53575 1.41053,0.53575l59.41049,0c0.5241,0 1.02555,-0.18557 1.40406,-0.53575c0.37851,-0.35018 0.5888,-0.8141 0.5888,-1.30196l0,-51.28541c-0.11647,-5.95312 -5.15685,-12.44498 -10.98014,-17.8833zm-2.80488,2.60991c2.6043,2.35251 4.94656,5.0163 6.69355,7.58431c-1.51406,-0.55371 -3.10252,-0.96375 -4.59393,-1.28999c-3.28369,-0.68241 -6.4962,-0.95777 -8.4923,-1.06851c0.00971,-0.39807 0.01294,-0.84702 0.01294,-1.33489c0,-2.60094 -0.17793,-6.30929 -1.15172,-9.57767c-0.00971,-0.02993 -0.01618,-0.05986 -0.02912,-0.08979c2.47166,1.50848 5.16332,3.51081 7.56057,5.77653zm9.79283,64.70612l-55.42478,0l0,-73.38289l30.8699,0l0,0.00599c1.34583,-0.07483 2.50725,1.15531 3.39692,3.96875c0.80879,2.67875 1.01261,6.17161 1.00937,8.59296c0.00647,1.77486 -0.08735,2.96608 -0.08735,2.96608l-0.15852,1.95145l2.12227,0.02095c0.00971,0 4.9045,0.05387 9.70548,1.06252c4.61334,0.92185 8.22054,2.75957 8.557,4.83971c0.01294,0.18557 0.01618,0.37113 0.01294,0.54473l0,49.42974l-0.00324,0z" fill="none"/>
  <text xml:space="preserve" text-anchor="start" font-family="Noto Sans JP" font-size="24" stroke-width="0" id="svg_12" y="47.67008" x="9.46106" stroke="#007fff" fill="#007fff">keep</text>
  <line id="svg_14" y2="30.56203" x2="17.98462" y1="6.03373" x1="5.53179" stroke="#007fff" fill="none"/>
  <ellipse stroke="#007fff" ry="3.54545" rx="3.27273" id="svg_17" cy="22.181" cx="28.20149" fill="#007fff"/>
  <line id="svg_18" y2="35.44817" x2="17.37566" y1="29.8118" x1="17.92111" stroke="#007fff" fill="none"/>
  <ellipse stroke="#007fff" ry="3.54545" rx="3.27273" id="svg_25" cy="68.74877" cx="10.61387" fill="#007fff"/>
  <line id="svg_31" y2="23.90976" x2="25.04945" y1="27.37797" x1="16.18625" stroke="#007fff" fill="none"/>
  <line id="svg_32" y2="34.18593" x2="42.64739" y1="30.33237" x1="17.7919" stroke="#007fff" fill="none"/>
  <line id="svg_34" y2="65.27135" x2="11.04817" y1="49.8571" x1="15.47976" stroke="#007fff" fill="none"/>
  <path id="svg_36" d="m13.93834,56.34393l8.28516,3.85356" opacity="undefined" stroke="#007fff" fill="#007fff"/>
  <path id="svg_37" d="m24.74361,65.16513c-1.80814,0 -3.27273,-1.58664 -3.27273,-3.54545c0,-1.95882 1.46459,-3.54546 3.27273,-3.54546c1.80814,0 3.27273,1.58664 3.27273,3.54546c0,1.95881 -1.46459,3.54545 -3.27273,3.54545z" opacity="undefined" stroke="#007fff" fill="#007fff"/>
 </g>

</svg>